# xmcd
#
# Track frame offsets:
#       150
#       12440
#       25695
#       36067
#       48977
#       60657
#       73950
#       86012
#       96902
#       108510
#       120017
#       133452
#       144337
#       155945
#       167922
#       179535
#       192815
#       206180
#
# Disc length: 2920 seconds
#
# Revision: 3
# Processed by: cddbd v1.5.2PL0 Copyright (c) Steve Scherf et al.
# Submitted via: FreeDbEdit v0.1
#
DISCID=070b6612
DTITLE=The Temptations - Early Classics
DYEAR=1996
DGENRE=Oldies
TTITLE0=My Girl
TTITLE1=I'll Be in Trouble
TTITLE2=Why You Wanna Make Me Blue
TTITLE3=The Girl's Alright With Me
TTITLE4=Get Ready
TTITLE5=(You're My) Dream Come True
TTITLE6=I Couldn't Cry If I Wanted To
TTITLE7=You're the One I Need
TTITLE8=You'll Lose a Precious Love
TTITLE9=Ain't Too Proud to Beg
TTITLE10=Who's Lovin' You
TTITLE11=Nobody but You
TTITLE12=I Gotta Know Now
TTITLE13=Too Busy Thinking About My Baby
TTITLE14=You've Got to Earn It
TTITLE15=Everybody Needs Love
TTITLE16=It's Growing
TTITLE17=Don't Look Back
EXTD=
EXTT0=
EXTT1=
EXTT2=
EXTT3=
EXTT4=
EXTT5=
EXTT6=
EXTT7=
EXTT8=
EXTT9=
EXTT10=
EXTT11=
EXTT12=
EXTT13=
EXTT14=
EXTT15=
EXTT16=
EXTT17=
PLAYORDER=
